<svg viewBox="0 0 786 696" fill="none" xmlns="http://www.w3.org/2000/svg">
<path d="M56.7047 132.11C91.0916 132.11 120.327 157.217 125.522 191.209L165.69 454.036C167.897 468.476 187.342 471.564 193.914 458.519L358.35 132.11C416.841 -1.38525 450.706 -77.1818 483.335 122.69C484.311 128.67 483.303 135.002 480.46 140.353L225.605 620H157.291C110.764 620 70.9341 586.636 62.7777 540.829L1.69369 197.782C-4.40324 163.541 21.9258 132.11 56.7047 132.11V132.11Z" fill="#333333"/>
<path d="M662.276 228.02C700.269 228.02 735.256 242.223 757.033 264C779.273 285.777 785.291 312.81 785.291 351.73C785.291 364.703 783.901 378.603 781.12 393.43L749.762 569.685C744.583 598.795 719.273 620 689.705 620H658.48C639.805 620 625.669 603.121 628.945 584.737L660.19 409.415C661.58 401.538 662.276 394.588 662.276 388.565C662.276 369.105 656.715 354.047 645.595 343.39C634.939 332.733 619.881 327.405 600.421 327.405C577.254 327.405 557.794 334.587 542.04 348.95C526.287 363.313 516.094 383.468 511.46 409.415V408.025L479.778 586.974C476.395 606.078 459.791 620 440.39 620H355.086L462.936 105.7L487.939 77.494C507.228 55.7334 542.407 60.3889 555.371 86.418V86.418C561.609 98.942 563.668 113.136 561.246 126.916L533.7 283.62C548.99 266.477 567.755 253.04 589.995 243.31C612.235 233.117 636.329 228.02 662.276 228.02Z" fill="#333333"/>
<path d="M187.402 696C181.474 696 176.638 694.726 172.894 692.178C169.202 689.578 167.356 685.912 167.356 681.18C167.356 680.712 167.408 680.01 167.512 679.074H181.396C181.24 681.05 181.708 682.61 182.8 683.754C183.892 684.898 185.556 685.47 187.792 685.47C189.82 685.47 191.406 685.028 192.55 684.144C193.746 683.26 194.344 682.012 194.344 680.4C194.344 678.736 193.59 677.384 192.082 676.344C190.626 675.304 188.338 674.134 185.218 672.834C182.202 671.586 179.732 670.416 177.808 669.324C175.936 668.18 174.298 666.646 172.894 664.722C171.49 662.798 170.788 660.38 170.788 657.468C170.736 653.88 171.62 650.76 173.44 648.108C175.26 645.456 177.782 643.428 181.006 642.024C184.23 640.62 187.922 639.918 192.082 639.918C195.826 639.918 199.154 640.516 202.066 641.712C204.978 642.856 207.24 644.546 208.852 646.782C210.464 648.966 211.27 651.566 211.27 654.582C211.27 655.362 211.244 655.934 211.192 656.298H196.996C197.048 656.09 197.074 655.778 197.074 655.362C197.074 653.906 196.554 652.736 195.514 651.852C194.526 650.916 193.148 650.448 191.38 650.448C189.508 650.448 187.974 650.916 186.778 651.852C185.634 652.736 185.062 653.958 185.062 655.518C185.062 657.078 185.79 658.404 187.246 659.496C188.702 660.536 190.964 661.758 194.032 663.162C197.1 664.566 199.596 665.866 201.52 667.062C203.496 668.258 205.186 669.87 206.59 671.898C207.994 673.874 208.696 676.318 208.696 679.23C208.696 682.454 207.838 685.34 206.122 687.888C204.406 690.436 201.936 692.438 198.712 693.894C195.488 695.298 191.718 696 187.402 696Z" fill="#555"/>
<path d="M290.524 640.698L288.73 651.228H274.144L266.344 695.454H253.006L260.806 651.228H246.298L248.17 640.698H290.524Z" fill="#555"/>
<path d="M337.622 640.698L331.85 673.38C331.642 674.732 331.538 675.668 331.538 676.188C331.538 678.58 332.214 680.426 333.566 681.726C334.918 682.974 336.92 683.598 339.572 683.598C342.692 683.598 345.24 682.714 347.216 680.946C349.192 679.178 350.466 676.656 351.038 673.38L356.81 640.698H370.148L364.376 673.38C363.492 678.32 361.724 682.506 359.072 685.938C356.472 689.318 353.274 691.84 349.478 693.504C345.734 695.168 341.652 696 337.232 696C331.512 696 326.884 694.518 323.348 691.554C319.864 688.59 318.122 684.3 318.122 678.684C318.122 677.02 318.278 675.252 318.59 673.38L324.284 640.698H337.622Z" fill="#555"/>
<path d="M427.328 640.698C432.372 640.698 436.714 641.608 440.354 643.428C444.046 645.196 446.854 647.718 448.778 650.994C450.754 654.218 451.742 658.014 451.742 662.382C451.742 663.89 451.56 665.788 451.196 668.076C450.26 673.432 448.232 678.19 445.112 682.35C442.044 686.51 438.118 689.734 433.334 692.022C428.602 694.31 423.376 695.454 417.656 695.454H397.142L406.814 640.698H427.328ZM418.826 684.066C423.87 684.066 428.056 682.662 431.384 679.854C434.712 677.046 436.792 673.12 437.624 668.076C437.884 666.516 438.014 665.216 438.014 664.176C438.014 660.328 436.844 657.364 434.504 655.284C432.164 653.152 428.836 652.086 424.52 652.086H418.124L412.508 684.066H418.826Z" fill="#555"/>
<path d="M504.124 640.698L494.452 695.454H481.114L490.786 640.698H504.124Z" fill="#555"/>
<path d="M557.469 696C552.841 696 548.76 695.038 545.224 693.114C541.74 691.19 539.035 688.486 537.111 685.002C535.187 681.518 534.225 677.514 534.225 672.99C534.225 666.594 535.603 660.9 538.359 655.908C541.115 650.864 544.937 646.938 549.825 644.13C554.765 641.322 560.355 639.918 566.595 639.918C571.275 639.918 575.383 640.88 578.919 642.804C582.455 644.676 585.185 647.354 587.109 650.838C589.033 654.27 589.995 658.222 589.995 662.694C589.995 669.09 588.617 674.836 585.861 679.932C583.105 684.976 579.258 688.928 574.318 691.788C569.378 694.596 563.761 696 557.469 696ZM559.497 683.676C562.929 683.676 565.946 682.792 568.546 681.024C571.146 679.256 573.148 676.89 574.552 673.926C576.008 670.91 576.735 667.66 576.735 664.176C576.735 660.432 575.695 657.494 573.615 655.362C571.535 653.23 568.624 652.164 564.88 652.164C561.448 652.164 558.406 653.048 555.754 654.816C553.154 656.584 551.125 658.95 549.669 661.914C548.265 664.826 547.563 668.05 547.563 671.586C547.563 675.33 548.603 678.294 550.683 680.478C552.763 682.61 555.701 683.676 559.497 683.676Z" fill="#555"/>
</svg>
